<?xml version="1.0" standalone="no"?>
<!DOCTYPE svg PUBLIC "-//W3C//DTD SVG 20010904//EN"
 "http://www.w3.org/TR/2001/REC-SVG-20010904/DTD/svg10.dtd">
<svg version="1.0" xmlns="http://www.w3.org/2000/svg"
 width="640.000000pt" height="640.000000pt" viewBox="0 0 640.000000 640.000000"
 preserveAspectRatio="xMidYMid meet">
<metadata>
Created by potrace 1.11, written by Peter Selinger 2001-2013
</metadata>
<g transform="translate(0.000000,640.000000) scale(0.100000,-0.100000)"
fill="#000000" stroke="none">
<path d="M1795 6389 c-681 -72 -1282 -490 -1588 -1104 -82 -166 -137 -333
-179 -550 -21 -109 -22 -126 -25 -1460 -3 -953 -1 -1382 7 -1460 72 -701 482
-1298 1105 -1608 167 -83 413 -160 605 -189 124 -19 2836 -19 2960 0 192 29
438 106 605 189 547 272 947 788 1070 1379 45 218 47 279 43 1699 -4 1323 -5
1341 -26 1450 -45 233 -108 416 -204 595 -109 205 -217 349 -380 505 -333 321
-735 507 -1197 554 -124 13 -2674 13 -2796 0z m2020 -1413 c453 -48 689 -47
890 4 38 10 71 17 71 16 7 -8 -80 -276 -105 -325 -64 -125 -177 -216 -315
-256 -93 -27 -323 -8 -619 52 -70 14 -129 24 -131 22 -5 -5 -206 -956 -206
-974 0 -13 52 -15 361 -15 l361 0 -4 -22 c-2 -13 -20 -96 -39 -185 l-34 -163
-365 0 -366 0 -199 -922 c-109 -508 -200 -931 -203 -940 -4 -17 -29 -18 -364
-18 -338 0 -359 1 -354 18 3 9 163 751 356 1647 193 897 354 1640 357 1653 4
19 1 22 -26 22 -58 0 -175 -31 -250 -67 -95 -45 -191 -140 -243 -238 -76 -146
-115 -342 -125 -630 -6 -202 4 -294 42 -380 l24 -55 -62 0 c-124 1 -256 42
-334 106 -93 76 -133 192 -133 384 0 339 120 632 348 852 358 345 946 491
1667 414z"/>
</g>
</svg>
